STARTFONT 2.1
COMMENT
COMMENT Converted from OpenType font "..\ttf\ITC Avant Garde Gothic CE Book.otf" by "otf2bdf.exe 3.0".
COMMENT
FONT -FreeType-AvantGarde CE-Medium-R-Normal--33-240-100-100-P-152-ISO10646-1
SIZE 24 100 100
FONTBOUNDINGBOX 40 40 -2 -8
STARTPROPERTIES 19
FOUNDRY "FreeType"
FAMILY_NAME "AvantGarde CE"
WEIGHT_NAME "Medium"
SLANT "R"
SETWIDTH_NAME "Normal"
ADD_STYLE_NAME ""
PIXEL_SIZE 33
POINT_SIZE 240
RESOLUTION_X 100
RESOLUTION_Y 100
SPACING "P"
AVERAGE_WIDTH 152
CHARSET_REGISTRY "ISO10646"
CHARSET_ENCODING "1"
FONT_ASCENT 24
FONT_DESCENT 6
COPYRIGHT "Copyright (c) 1985, 1987, 1989, 1990, 1991, 1992, 1997 Adobe Systems Incorporated.  All Rights Reserved.ITC Avant Garde Gothic is a registered trademark of International Typeface Corporation."
_OTF_FONTFILE "..\ttf\ITC Avant Garde Gothic CE Book.otf"
_OTF_PSNAME "AvantGardeCE-Book"
ENDPROPERTIES
CHARS 260
STARTCHAR 0020
ENCODING 32
SWIDTH 270 0
DWIDTH 9 0
BBX 0 0 0 0
BITMAP
ENDCHAR
STARTCHAR 0021
ENCODING 33
SWIDTH 300 0
DWIDTH 10 0
BBX 2 24 4 0
BITMAP
C0
C0
C0
C0
C0
C0
C0
C0
C0
C0
C0
C0
C0
C0
C0
C0
C0
C0
00
00
C0
C0
C0
C0
ENDCHAR
STARTCHAR 0022
ENCODING 34
SWIDTH 300 0
DWIDTH 10 0
BBX 8 10 1 14
BITMAP
C3
C3
C3
C3
C3
C3
C3
C3
C3
C3
ENDCHAR
STARTCHAR 0023
ENCODING 35
SWIDTH 540 0
DWIDTH 18 0
BBX 16 24 1 0
BITMAP
030C
070C
070C
061C
061C
0618
0618
7FFF
7FFF
0E18
0C38
0C38
0C30
0C30
0C30
FFFE
FFFE
1870
1870
1860
1860
1860
3860
3860
ENDCHAR
STARTCHAR 0024
ENCODING 36
SWIDTH 540 0
DWIDTH 18 0
BBX 13 29 2 -2
BITMAP
0300
0300
0300
0FC0
1FF0
3870
7038
6018
6018
6000
6000
7000
3C00
1F80
07E0
00F0
0030
0018
0018
C018
C018
E018
6038
7870
3FE0
0F80
0300
0300
0300
ENDCHAR
STARTCHAR 0025
ENCODING 37
SWIDTH 780 0
DWIDTH 26 0
BBX 24 24 1 0
BITMAP
1F8070
3FC060
70E0C0
E070C0
C03180
C03380
C03300
E07600
70E600
3FCC00
1F8C00
001800
0038F0
0033FC
00670E
006E06
00CC03
00CC03
018C03
038C03
030E06
06070E
0603FC
0C01F0
ENDCHAR
STARTCHAR 0026
ENCODING 38
SWIDTH 750 0
DWIDTH 25 0
BBX 22 24 2 0
BITMAP
03E000
07F000
0E7800
1C1C00
180C00
180C00
180C00
1C1C00
0E7870
07F070
0FC0E0
1FC0C0
38E1C0
607180
E03B80
C01F00
C00F00
C00780
C00FC0
E01DE0
7038F0
3CF878
1FF03C
07C018
ENDCHAR
STARTCHAR 0027
ENCODING 39
SWIDTH 210 0
DWIDTH 7 0
BBX 2 10 2 14
BITMAP
C0
C0
C0
C0
C0
C0
C0
C0
C0
C0
ENDCHAR
STARTCHAR 0028
ENCODING 40
SWIDTH 360 0
DWIDTH 12 0
BBX 10 30 2 -6
BITMAP
00C0
01C0
0380
0700
0E00
1C00
3800
3000
7000
6000
6000
E000
C000
C000
C000
C000
C000
C000
E000
E000
6000
7000
3000
3800
1C00
0E00
0F00
0780
01C0
00C0
ENDCHAR
STARTCHAR 0029
ENCODING 41
SWIDTH 360 0
DWIDTH 12 0
BBX 10 32 0 -6
BITMAP
8000
E000
F000
7800
1C00
0E00
0E00
0700
0380
0380
0180
01C0
01C0
00C0
00C0
00C0
00C0
00C0
00C0
00C0
01C0
0180
0180
0380
0300
0700
0E00
1C00
3800
7000
E000
C000
ENDCHAR
STARTCHAR 002A
ENCODING 42
SWIDTH 420 0
DWIDTH 14 0
BBX 10 10 2 14
BITMAP
0C00
0C00
0C00
EDC0
FFC0
1E00
1E00
3300
7380
0100
ENDCHAR
STARTCHAR 002B
ENCODING 43
SWIDTH 600 0
DWIDTH 20 0
BBX 16 16 2 1
BITMAP
0180
0180
0180
0180
0180
0180
0180
FFFF
FFFF
0180
0180
0180
0180
0180
0180
0180
ENDCHAR
STARTCHAR 002C
ENCODING 44
SWIDTH 270 0
DWIDTH 9 0
BBX 5 6 0 -2
BITMAP
38
30
30
60
60
E0
ENDCHAR
STARTCHAR 002D
ENCODING 45
SWIDTH 330 0
DWIDTH 11 0
BBX 9 2 1 9
BITMAP
FF80
FF80
ENDCHAR
STARTCHAR 002E
ENCODING 46
SWIDTH 270 0
DWIDTH 9 0
BBX 2 4 3 1
BITMAP
C0
C0
C0
C0
ENDCHAR
STARTCHAR 002F
ENCODING 47
SWIDTH 450 0
DWIDTH 15 0
BBX 12 28 1 -4
BITMAP
0070
0060
0060
00E0
00C0
01C0
01C0
0180
0380
0380
0300
0700
0700
0600
0E00
0E00
0C00
1C00
1C00
1800
3800
3800
3000
7000
7000
6000
E000
E000
ENDCHAR
STARTCHAR 0030
ENCODING 48
SWIDTH 540 0
DWIDTH 18 0
BBX 16 24 1 0
BITMAP
07E0
1FF8
3C3C
700E
6006
E007
C003
C003
C003
C003
C003
C003
C003
C003
C003
C003
C003
C003
E007
6006
700E
3C3C
1FF8
07E0
ENDCHAR
STARTCHAR 0031
ENCODING 49
SWIDTH 540 0
DWIDTH 18 0
BBX 6 24 5 0
BITMAP
FC
FC
0C
0C
0C
0C
0C
0C
0C
0C
0C
0C
0C
0C
0C
0C
0C
0C
0C
0C
0C
0C
0C
0C
ENDCHAR
STARTCHAR 0032
ENCODING 50
SWIDTH 540 0
DWIDTH 18 0
BBX 14 24 2 0
BITMAP
07C0
1FE0
38F0
7038
E01C
C00C
C00C
C00C
000C
001C
0018
0038
0070
00E0
01C0
0380
0700
0E00
1C00
3800
7000
E000
FFFC
FFFC
ENDCHAR
STARTCHAR 0033
ENCODING 51
SWIDTH 540 0
DWIDTH 18 0
BBX 15 24 1 0
BITMAP
07E0
0FF0
1C78
381C
300C
300C
000C
001C
0038
03F0
03F8
003C
001C
000E
0006
0006
C006
C006
E006
600E
701C
3C38
1FF0
07C0
ENDCHAR
STARTCHAR 0034
ENCODING 52
SWIDTH 540 0
DWIDTH 18 0
BBX 16 24 1 0
BITMAP
001C
003C
003C
007C
00EC
00CC
01CC
038C
030C
070C
060C
0E0C
1C0C
180C
380C
700C
600C
E00C
FFFF
FFFF
000C
000C
000C
000C
ENDCHAR
STARTCHAR 0035
ENCODING 53
SWIDTH 540 0
DWIDTH 18 0
BBX 16 24 1 0
BITMAP
1FFC
1FFC
1800
1800
1800
3800
3800
3000
37E0
3FF8
7C3C
700E
0006
0007
0003
0003
C003
C003
E007
6006
700E
3E3C
1FF8
07E0
ENDCHAR
STARTCHAR 0036
ENCODING 54
SWIDTH 540 0
DWIDTH 18 0
BBX 16 24 1 0
BITMAP
00E0
00C0
01C0
0380
0300
0700
0E00
0C00
1FE0
3FF8
3C3C
700E
6006
C007
C003
C003
C003
C003
E007
6006
700E
3C7C
1FF8
07E0
ENDCHAR
STARTCHAR 0037
ENCODING 55
SWIDTH 540 0
DWIDTH 18 0
BBX 14 24 2 0
BITMAP
FFFC
FFFC
001C
0018
0038
0038
0030
0070
0060
00E0
00C0
01C0
0180
0380
0300
0700
0600
0600
0E00
0C00
1C00
1800
3800
3000
ENDCHAR
STARTCHAR 0038
ENCODING 56
SWIDTH 540 0
DWIDTH 18 0
BBX 15 24 1 0
BITMAP
07C0
1FF0
3C78
301C
700C
600C
600C
700C
301C
3C38
1FF0
1FF8
383C
701C
E00E
C006
C006
C006
C006
600E
701C
3C38
1FF0
07C0
ENDCHAR
STARTCHAR 0039
ENCODING 57
SWIDTH 540 0
DWIDTH 18 0
BBX 16 24 1 0
BITMAP
07E0
1FF8
3C3C
700E
6006
E007
C003
C003
C003
C003
E007
6006
700E
3C3C
1FFC
07F8
0030
0070
00E0
00C0
01C0
0380
0300
0700
ENDCHAR
STARTCHAR 003A
ENCODING 58
SWIDTH 270 0
DWIDTH 9 0
BBX 2 18 3 0
BITMAP
C0
C0
C0
C0
00
00
00
00
00
00
00
00
00
00
C0
C0
C0
C0
ENDCHAR
STARTCHAR 003B
ENCODING 59
SWIDTH 270 0
DWIDTH 9 0
BBX 5 20 0 -2
BITMAP
18
18
18
18
00
00
00
00
00
00
00
00
00
00
18
38
30
70
60
E0
ENDCHAR
STARTCHAR 003C
ENCODING 60
SWIDTH 600 0
DWIDTH 20 0
BBX 17 17 2 1
BITMAP
000180
000780
001F00
007C00
01F000
0F8000
3E0000
F80000
E00000
F80000
3E0000
07C000
01F000
007C00
001F00
000380
000080
ENDCHAR
STARTCHAR 003D
ENCODING 61
SWIDTH 600 0
DWIDTH 20 0
BBX 16 9 2 3
BITMAP
FFFF
FFFF
0000
0000
0000
0000
0000
FFFF
FFFF
ENDCHAR
STARTCHAR 003E
ENCODING 62
SWIDTH 600 0
DWIDTH 20 0
BBX 17 17 2 1
BITMAP
C00000
F00000
7C0000
1F0000
07E000
00F800
003E00
000F80
000380
000F80
003E00
01F000
07C000
1F0000
7C0000
E00000
800000
ENDCHAR
STARTCHAR 003F
ENCODING 63
SWIDTH 600 0
DWIDTH 20 0
BBX 15 24 2 0
BITMAP
07E0
1FF0
3C78
701C
600E
C006
C006
C006
0006
000C
001C
0038
0070
00E0
00C0
01C0
0180
0180
0000
0000
0180
0180
0180
0180
ENDCHAR
STARTCHAR 0040
ENCODING 64
SWIDTH 870 0
DWIDTH 29 0
BBX 24 24 2 0
BITMAP
007F80
03FFE0
078078
1E001C
1C000E
380006
703E67
607F63
60E1E3
C180E3
C380E3
C300C3
C300C3
C300C3
C301C6
E381C6
61C7CC
70FEFC
307C70
380000
1E0000
078018
03FFF8
007FC0
ENDCHAR
STARTCHAR 0041
ENCODING 65
SWIDTH 750 0
DWIDTH 25 0
BBX 23 24 0 0
BITMAP
003800
007800
007C00
006C00
00EE00
00C600
01C700
01C700
018300
038380
030180
0701C0
0601C0
0E00E0
0FFFE0
0FFFE0
1C0070
180030
380038
300038
70001C
70001C
60000C
E0000E
ENDCHAR
STARTCHAR 0042
ENCODING 66
SWIDTH 570 0
DWIDTH 19 0
BBX 15 24 2 0
BITMAP
FFC0
FFF0
C0F8
C01C
C00C
C00C
C00C
C00C
C01C
C078
FFF0
FFF8
C07C
C01C
C00E
C006
C006
C006
C006
C00E
C00C
C07C
FFF8
FFC0
ENDCHAR
STARTCHAR 0043
ENCODING 67
SWIDTH 810 0
DWIDTH 27 0
BBX 24 24 1 0
BITMAP
007F00
03FFE0
07C1F0
0E003C
1C001C
38000E
700000
600000
600000
E00000
C00000
C00000
C00000
C00000
E00000
600000
600000
700007
38000E
1C001C
0F0038
07C1F0
03FFC0
007F00
ENDCHAR
STARTCHAR 0044
ENCODING 68
SWIDTH 750 0
DWIDTH 25 0
BBX 20 24 2 0
BITMAP
FFE000
FFFC00
C07F00
C00780
C003C0
C001C0
C000E0
C00060
C00070
C00030
C00030
C00030
C00030
C00030
C00030
C00070
C00060
C000E0
C000C0
C001C0
C00780
C03E00
FFFC00
FFE000
ENDCHAR
STARTCHAR 0045
ENCODING 69
SWIDTH 540 0
DWIDTH 18 0
BBX 13 24 2 0
BITMAP
FFF8
FFF8
C000
C000
C000
C000
C000
C000
C000
C000
C000
FFF8
FFF8
C000
C000
C000
C000
C000
C000
C000
C000
C000
FFF8
FFF8
ENDCHAR
STARTCHAR 0046
ENCODING 70
SWIDTH 480 0
DWIDTH 16 0
BBX 12 24 2 0
BITMAP
FFF0
FFF0
C000
C000
C000
C000
C000
C000
C000
C000
C000
FFF0
FFF0
C000
C000
C000
C000
C000
C000
C000
C000
C000
C000
C000
ENDCHAR
STARTCHAR 0047
ENCODING 71
SWIDTH 870 0
DWIDTH 29 0
BBX 25 24 1 0
BITMAP
007F0000
01FFE000
07C1F800
0E003C00
1C001E00
38000F00
70000700
60000000
60000000
E0000000
C0000000
C0000000
C0000000
C07FFF80
E07FFF80
60000380
60000380
70000700
38000700
1C001E00
0F003C00
07C1F800
01FFE000
007F0000
ENDCHAR
STARTCHAR 0048
ENCODING 72
SWIDTH 690 0
DWIDTH 23 0
BBX 16 24 3 0
BITMAP
C003
C003
C003
C003
C003
C003
C003
C003
C003
C003
C003
FFFF
FFFF
C003
C003
C003
C003
C003
C003
C003
C003
C003
C003
C003
ENDCHAR
STARTCHAR 0049
ENCODING 73
SWIDTH 240 0
DWIDTH 8 0
BBX 2 24 3 0
BITMAP
C0
C0
C0
C0
C0
C0
C0
C0
C0
C0
C0
C0
C0
C0
C0
C0
C0
C0
C0
C0
C0
C0
C0
C0
ENDCHAR
STARTCHAR 004A
ENCODING 74
SWIDTH 480 0
DWIDTH 16 0
BBX 13 24 0 0
BITMAP
0018
0018
0018
0018
0018
0018
0018
0018
0018
0018
0018
0018
0018
0018
0018
0018
0018
0018
E018
6038
7030
3870
1FE0
0F80
ENDCHAR
STARTCHAR 004B
ENCODING 75
SWIDTH 600 0
DWIDTH 20 0
BBX 16 24 3 0
BITMAP
C007
C00E
C01C
C038
C038
C070
C0E0
C1C0
C380
C700
C700
CE00
DE00
FF00
F380
F1C0
E1C0
C0E0
C070
C038
C03C
C01C
C00E
C007
ENDCHAR
STARTCHAR 004C
ENCODING 76
SWIDTH 450 0
DWIDTH 15 0
BBX 12 24 3 0
BITMAP
C000
C000
C000
C000
C000
C000
C000
C000
C000
C000
C000
C000
C000
C000
C000
C000
C000
C000
C000
C000
C000
C000
FFF0
FFF0
ENDCHAR
STARTCHAR 004D
ENCODING 77
SWIDTH 930 0
DWIDTH 31 0
BBX 24 24 3 0
BITMAP
F0000F
F0000F
F0000F
F8001F
D8001B
DC003B
CC0033
CE0073
CE0063
C60063
C700E3
C300C3
C381C3
C18183
C18183
C1C383
C0C303
C0E703
C06603
C07E03
C07C03
C03C03
C03C03
C01803
ENDCHAR
STARTCHAR 004E
ENCODING 78
SWIDTH 750 0
DWIDTH 25 0
BBX 18 24 3 0
BITMAP
E000C0
F000C0
F800C0
F800C0
DC00C0
CC00C0
CE00C0
C700C0
C300C0
C380C0
C1C0C0
C0C0C0
C0E0C0
C070C0
C030C0
C038C0
C01CC0
C00CC0
C00EC0
C007C0
C003C0
C003C0
C001C0
C000C0
ENDCHAR
STARTCHAR 004F
ENCODING 79
SWIDTH 870 0
DWIDTH 29 0
BBX 26 24 1 0
BITMAP
007F8000
01FFE000
07C1F800
0F003C00
1C000E00
38000700
30000380
60000180
60000180
E00001C0
C00000C0
C00000C0
C00000C0
C00000C0
E00000C0
60000180
60000180
70000380
38000700
1C000E00
0F003C00
07E0F800
01FFE000
007F8000
ENDCHAR
STARTCHAR 0050
ENCODING 80
SWIDTH 600 0
DWIDTH 20 0
BBX 15 24 3 0
BITMAP
FFC0
FFF0
C07C
C01C
C00E
C006
C006
C006
C006
C00E
C01C
C07C
FFF0
FFC0
C000
C000
C000
C000
C000
C000
C000
C000
C000
C000
ENDCHAR
STARTCHAR 0051
ENCODING 81
SWIDTH 870 0
DWIDTH 29 0
BBX 26 24 1 0
BITMAP
007F8000
01FFF000
07C0F800
0F003C00
1C000E00
38000700
70000380
60000180
600001C0
E00000C0
C00000C0
C00000C0
C00000C0
C00000C0
EFF000C0
7FFE01C0
701F8180
7003E380
3800F700
1C007E00
0F003C00
07E0FF00
01FFE7C0
007F81C0
ENDCHAR
STARTCHAR 0052
ENCODING 82
SWIDTH 600 0
DWIDTH 20 0
BBX 16 24 2 0
BITMAP
FFE0
FFF8
C03C
C00E
C007
C003
C003
C003
C003
C003
C007
C00E
C03E
C7FC
C3F0
C180
C1C0
C0E0
C070
C030
C038
C01C
C00E
C006
ENDCHAR
STARTCHAR 0053
ENCODING 83
SWIDTH 510 0
DWIDTH 17 0
BBX 15 24 0 0
BITMAP
07E0
1FF8
3C3C
300C
700E
6006
6000
7000
3800
3C00
1FC0
07F0
0078
001C
000E
0006
0006
E006
6006
600E
700C
3C3C
1FF0
07E0
ENDCHAR
STARTCHAR 0054
ENCODING 84
SWIDTH 420 0
DWIDTH 14 0
BBX 14 24 0 0
BITMAP
FFFC
FFFC
0300
0300
0300
0300
0300
0300
0300
0300
0300
0300
0300
0300
0300
0300
0300
0300
0300
0300
0300
0300
0300
0300
ENDCHAR
STARTCHAR 0055
ENCODING 85
SWIDTH 660 0
DWIDTH 22 0
BBX 16 24 3 0
BITMAP
C003
C003
C003
C003
C003
C003
C003
C003
C003
C003
C003
C003
C003
C003
C003
C003
C003
C003
E007
6006
700E
3C3C
1FF8
07E0
ENDCHAR
STARTCHAR 0056
ENCODING 86
SWIDTH 690 0
DWIDTH 23 0
BBX 22 24 0 0
BITMAP
E0001C
E00018
600038
700038
700030
380070
380060
1800E0
1C00C0
0C00C0
0E01C0
0E0180
060380
070300
030700
038700
038600
018E00
01CC00
00DC00
00F800
007800
007800
007000
ENDCHAR
STARTCHAR 0057
ENCODING 87
SWIDTH 960 0
DWIDTH 32 0
BBX 31 24 0 0
BITMAP
E003800E
6003800E
7003C00C
7003C00C
3007C01C
3006C018
3806E018
380E6038
180C6038
1C0C6030
1C0C7030
0C1C3070
0C183060
0E183860
0E1838E0
063818E0
073018C0
07301CC0
03701DC0
03700D80
03E00D80
03E00F80
01E00780
01C00700
ENDCHAR
STARTCHAR 0058
ENCODING 88
SWIDTH 600 0
DWIDTH 20 0
BBX 19 24 0 0
BITMAP
7001C0
7001C0
380380
1C0700
1C0700
0E0E00
070C00
071C00
03B800
01B000
01F000
00E000
00E000
01F000
03B800
031800
071C00
0E0E00
0C0600
1C0700
380380
300180
7001C0
E000E0
ENDCHAR
STARTCHAR 0059
ENCODING 89
SWIDTH 600 0
DWIDTH 20 0
BBX 18 24 0 0
BITMAP
E000C0
E001C0
700180
700380
380300
380700
1C0600
0C0E00
0E0C00
061C00
071800
033800
03B000
01E000
01E000
00C000
00C000
00C000
00C000
00C000
00C000
00C000
00C000
00C000
ENDCHAR
STARTCHAR 005A
ENCODING 90
SWIDTH 480 0
DWIDTH 16 0
BBX 15 24 0 0
BITMAP
FFFE
FFFE
000E
001C
001C
0038
0030
0070
00E0
00C0
01C0
0380
0380
0700
0600
0E00
1C00
1800
3800
7000
7000
E000
FFFE
FFFE
ENDCHAR
STARTCHAR 005B
ENCODING 91
SWIDTH 360 0
DWIDTH 12 0
BBX 6 30 4 -7
BITMAP
04
1C
3C
30
70
60
E0
C0
C0
C0
C0
C0
C0
C0
C0
C0
C0
C0
C0
C0
C0
C0
C0
C0
E0
60
70
38
1C
0C
ENDCHAR
STARTCHAR 005C
ENCODING 92
SWIDTH 600 0
DWIDTH 20 0
BBX 12 28 4 -4
BITMAP
E000
E000
6000
7000
7000
3000
3800
3800
1800
1C00
0C00
0C00
0E00
0600
0600
0700
0300
0300
0380
0180
0180
01C0
00C0
00C0
00E0
0060
0060
0070
ENDCHAR
STARTCHAR 005D
ENCODING 93
SWIDTH 360 0
DWIDTH 12 0
BBX 6 30 1 -7
BITMAP
80
E0
F0
78
38
1C
0C
0C
0C
0C
0C
0C
0C
0C
0C
0C
0C
0C
0C
0C
0C
0C
0C
0C
1C
18
38
70
E0
C0
ENDCHAR
STARTCHAR 005E
ENCODING 94
SWIDTH 600 0
DWIDTH 20 0
BBX 16 14 2 9
BITMAP
0180
03C0
03C0
06E0
0660
0C70
0C30
1C38
1818
381C
300C
700E
6006
E007
ENDCHAR
STARTCHAR 005F
ENCODING 95
SWIDTH 510 0
DWIDTH 17 0
BBX 16 2 0 -5
BITMAP
FFFF
FFFF
ENDCHAR
STARTCHAR 0060
ENCODING 96
SWIDTH 390 0
DWIDTH 13 0
BBX 7 6 2 20
BITMAP
40
F0
78
3E
0E
02
ENDCHAR
STARTCHAR 0061
ENCODING 97
SWIDTH 690 0
DWIDTH 23 0
BBX 19 18 1 0
BITMAP
01F860
0FFE60
1E0F60
3803E0
7001E0
6000E0
E000E0
C00060
C00060
C00060
C00060
E00060
6000E0
7001E0
3803E0
1E0F60
0FFE60
03F860
ENDCHAR
STARTCHAR 0062
ENCODING 98
SWIDTH 690 0
DWIDTH 23 0
BBX 19 24 2 0
BITMAP
C00000
C00000
C00000
C00000
C00000
C00000
C3F800
CFFE00
DE0F00
F80380
F001C0
E000C0
E000E0
C00060
C00060
C00060
C00060
E000E0
E000C0
F001C0
F80380
DE0F00
CFFE00
C3F800
ENDCHAR
STARTCHAR 0063
ENCODING 99
SWIDTH 660 0
DWIDTH 22 0
BBX 18 18 1 0
BITMAP
03F800
0FFE00
1E0F00
380380
7001C0
6000C0
E00000
C00000
C00000
C00000
C00000
E00000
6000C0
7001C0
380380
1E0F00
0FFE00
03F800
ENDCHAR
STARTCHAR 0064
ENCODING 100
SWIDTH 690 0
DWIDTH 23 0
BBX 19 24 1 0
BITMAP
000060
000060
000060
000060
000060
000060
03F860
0FFE60
1E0F60
3803E0
7001E0
6000E0
E000E0
C00060
C00060
C00060
C00060
E000E0
6000E0
7001E0
3803E0
1E0F60
0FFE60
03F860
ENDCHAR
STARTCHAR 0065
ENCODING 101
SWIDTH 660 0
DWIDTH 22 0
BBX 18 18 1 0
BITMAP
03F000
0FFC00
1E1E00
380700
700380
6001C0
E000C0
C000C0
FFFFC0
FFFFC0
C00000
C00000
6001C0
700380
380700
1E0E00
0FFC00
03F000
ENDCHAR
STARTCHAR 0066
ENCODING 102
SWIDTH 300 0
DWIDTH 10 0
BBX 10 24 0 0
BITMAP
03C0
07C0
0E00
1C00
1800
1800
FFC0
FFC0
1800
1800
1800
1800
1800
1800
1800
1800
1800
1800
1800
1800
1800
1800
1800
1800
ENDCHAR
STARTCHAR 0067
ENCODING 103
SWIDTH 660 0
DWIDTH 22 0
BBX 19 24 1 -6
BITMAP
01F860
0FFE60
1E0F60
3803E0
7001E0
6000E0
E000E0
C00060
C00060
C00060
C00060
E000E0
6000E0
7001E0
3803E0
1E0F60
0FFE60
03F860
6000E0
7000C0
3801C0
1E0780
0FFF00
01FC00
ENDCHAR
STARTCHAR 0068
ENCODING 104
SWIDTH 600 0
DWIDTH 20 0
BBX 16 24 2 0
BITMAP
C000
C000
C000
C000
C000
C000
C7E0
DFF8
FC3C
F00E
E006
E007
C003
C003
C003
C003
C003
C003
C003
C003
C003
C003
C003
C003
ENDCHAR
STARTCHAR 0069
ENCODING 105
SWIDTH 210 0
DWIDTH 7 0
BBX 2 24 2 0
BITMAP
C0
C0
C0
C0
00
00
C0
C0
C0
C0
C0
C0
C0
C0
C0
C0
C0
C0
C0
C0
C0
C0
C0
C0
ENDCHAR
STARTCHAR 006A
ENCODING 106
SWIDTH 210 0
DWIDTH 7 0
BBX 6 30 -2 -6
BITMAP
0C
0C
0C
0C
00
00
0C
0C
0C
0C
0C
0C
0C
0C
0C
0C
0C
0C
0C
0C
0C
0C
0C
0C
0C
0C
1C
38
F0
E0
ENDCHAR
STARTCHAR 006B
ENCODING 107
SWIDTH 510 0
DWIDTH 17 0
BBX 13 24 2 0
BITMAP
C000
C000
C000
C000
C000
C000
C038
C070
C070
C0E0
C1C0
C380
C300
C700
CE00
DE00
DF00
FB00
F380
E1C0
C0E0
C070
C038
C038
ENDCHAR
STARTCHAR 006C
ENCODING 108
SWIDTH 210 0
DWIDTH 7 0
BBX 2 24 2 0
BITMAP
C0
C0
C0
C0
C0
C0
C0
C0
C0
C0
C0
C0
C0
C0
C0
C0
C0
C0
C0
C0
C0
C0
C0
C0
ENDCHAR
STARTCHAR 006D
ENCODING 109
SWIDTH 930 0
DWIDTH 31 0
BBX 26 18 2 0
BITMAP
C7C07C00
DFF1FF00
F87B8780
F01F0180
E01E01C0
C00C00C0
C00C00C0
C00C00C0
C00C00C0
C00C00C0
C00C00C0
C00C00C0
C00C00C0
C00C00C0
C00C00C0
C00C00C0
C00C00C0
C00C00C0
ENDCHAR
STARTCHAR 006E
ENCODING 110
SWIDTH 600 0
DWIDTH 20 0
BBX 16 18 2 0
BITMAP
C7E0
DFF8
FC3C
F00E
E006
E007
C003
C003
C003
C003
C003
C003
C003
C003
C003
C003
C003
C003
ENDCHAR
STARTCHAR 006F
ENCODING 111
SWIDTH 660 0
DWIDTH 22 0
BBX 19 18 1 0
BITMAP
01F800
0FFE00
1E0F00
380380
7001C0
6000C0
E000E0
C00060
C00060
C00060
C00060
E000E0
6000C0
7001C0
380380
1E0F00
0FFE00
03F800
ENDCHAR
STARTCHAR 0070
ENCODING 112
SWIDTH 690 0
DWIDTH 23 0
BBX 19 24 2 -6
BITMAP
C3F800
CFFE00
DE0F00
F80380
F001C0
E000C0
E000E0
C00060
C00060
C00060
C00060
E000E0
E000C0
F001C0
F80380
DE0F00
CFFE00
C3F800
C00000
C00000
C00000
C00000
C00000
C00000
ENDCHAR
STARTCHAR 0071
ENCODING 113
SWIDTH 690 0
DWIDTH 23 0
BBX 19 24 1 -6
BITMAP
03F860
0FFE60
1E0F60
3803E0
7001E0
6000E0
E000E0
C00060
C00060
C00060
C00060
E000E0
6000E0
7001E0
3803E0
1E0F60
0FFE60
03F860
000060
000060
000060
000060
000060
000060
ENDCHAR
STARTCHAR 0072
ENCODING 114
SWIDTH 300 0
DWIDTH 10 0
BBX 7 18 2 0
BITMAP
C6
DE
FE
F0
E0
E0
C0
C0
C0
C0
C0
C0
C0
C0
C0
C0
C0
C0
ENDCHAR
STARTCHAR 0073
ENCODING 115
SWIDTH 390 0
DWIDTH 13 0
BBX 11 18 1 0
BITMAP
1F00
7F80
61C0
C0C0
C0C0
C000
E000
7C00
3F00
07C0
01E0
00E0
C060
C060
E0E0
71C0
7F80
1F00
ENDCHAR
STARTCHAR 0074
ENCODING 116
SWIDTH 330 0
DWIDTH 11 0
BBX 10 24 0 0
BITMAP
0C00
0C00
0C00
0C00
0C00
0C00
FFC0
FFC0
0C00
0C00
0C00
0C00
0C00
0C00
0C00
0C00
0C00
0C00
0C00
0C00
0C00
0C00
0C00
0C00
ENDCHAR
STARTCHAR 0075
ENCODING 117
SWIDTH 600 0
DWIDTH 20 0
BBX 15 18 2 0
BITMAP
C006
C006
C006
C006
C006
C006
C006
C006
C006
C006
C006
C006
E006
600E
701E
383E
1FF6
0FC6
ENDCHAR
STARTCHAR 0076
ENCODING 118
SWIDTH 540 0
DWIDTH 18 0
BBX 17 18 1 0
BITMAP
C00380
C00300
E00700
600700
700600
300E00
380C00
181C00
181800
1C1800
0C3800
0E3000
067000
066000
07E000
03C000
03C000
01C000
ENDCHAR
STARTCHAR 0077
ENCODING 119
SWIDTH 840 0
DWIDTH 28 0
BBX 26 18 0 0
BITMAP
C00001C0
E0000180
600C0180
601C0380
701E0300
301E0300
303E0700
38370600
18330E00
1C730C00
0C630C00
0C619C00
0E619800
06C19800
06C1F000
07C0F000
0380F000
0380E000
ENDCHAR
STARTCHAR 0078
ENCODING 120
SWIDTH 480 0
DWIDTH 16 0
BBX 15 18 0 0
BITMAP
E00E
701C
3018
3838
1C70
0EE0
0EC0
07C0
0380
0380
07C0
0EE0
0C60
1C70
3838
3018
701C
E00E
ENDCHAR
STARTCHAR 0079
ENCODING 121
SWIDTH 540 0
DWIDTH 18 0
BBX 17 24 0 -6
BITMAP
E00380
600300
700700
700600
300600
380E00
180C00
1C1C00
0C1800
0C3800
0E3000
067000
076000
036000
03E000
03C000
01C000
018000
018000
030000
030000
060000
060000
0E0000
ENDCHAR
STARTCHAR 007A
ENCODING 122
SWIDTH 420 0
DWIDTH 14 0
BBX 13 18 0 0
BITMAP
FFF0
FFF0
0070
0060
00E0
01C0
0180
0380
0700
0600
0E00
1C00
3800
3000
7000
E000
FFF8
FFF8
ENDCHAR
STARTCHAR 007B
ENCODING 123
SWIDTH 360 0
DWIDTH 12 0
BBX 8 30 2 -7
BITMAP
07
0F
1C
18
18
18
18
18
18
18
18
18
38
70
E0
E0
70
38
18
18
18
18
18
18
18
18
18
1C
0F
0F
ENDCHAR
STARTCHAR 007C
ENCODING 124
SWIDTH 660 0
DWIDTH 22 0
BBX 2 33 10 -7
BITMAP
C0
C0
C0
C0
C0
C0
C0
C0
C0
C0
C0
C0
C0
C0
C0
C0
C0
C0
C0
C0
C0
C0
C0
C0
C0
C0
C0
C0
C0
C0
C0
C0
C0
ENDCHAR
STARTCHAR 007D
ENCODING 125
SWIDTH 360 0
DWIDTH 12 0
BBX 8 30 1 -7
BITMAP
E0
F0
38
18
18
18
18
18
18
18
18
18
1C
0E
07
07
0E
1C
18
18
18
18
18
18
18
18
18
38
F0
E0
ENDCHAR
STARTCHAR 007E
ENCODING 126
SWIDTH 600 0
DWIDTH 20 0
BBX 15 4 2 7
BITMAP
3E04
7F8E
C3FC
0078
ENDCHAR
STARTCHAR 00A0
ENCODING 160
SWIDTH 270 0
DWIDTH 9 0
BBX 0 0 0 0
BITMAP
ENDCHAR
STARTCHAR 00A3
ENCODING 163
SWIDTH 540 0
DWIDTH 18 0
BBX 18 24 0 0
BITMAP
03F000
0FFC00
1E1E00
380700
300300
600380
600000
600000
600000
700000
FFFC00
FFFC00
1E0000
070000
030000
0380C0
0180C0
0180C0
0180C0
0181C0
038380
030F00
7FFE00
7FF800
ENDCHAR
STARTCHAR 00A4
ENCODING 164
SWIDTH 540 0
DWIDTH 18 0
BBX 18 18 0 1
BITMAP
400080
E001C0
73F380
3FFF00
1E1E00
1C0600
180700
300300
300300
300300
300300
180700
1C0600
1E1E00
3FFF00
71E380
E001C0
400080
ENDCHAR
STARTCHAR 00A6
ENCODING 166
SWIDTH 660 0
DWIDTH 22 0
BBX 2 28 10 -5
BITMAP
C0
C0
C0
C0
C0
C0
C0
C0
C0
C0
C0
C0
00
00
00
00
C0
C0
C0
C0
C0
C0
C0
C0
C0
C0
C0
C0
ENDCHAR
STARTCHAR 00A7
ENCODING 167
SWIDTH 630 0
DWIDTH 21 0
BBX 13 29 3 -5
BITMAP
0F80
1FE0
38F0
7030
6030
6000
6000
7000
3C00
7F00
67C0
C1E0
C070
C038
C018
7018
7C18
1F18
07B0
01F0
0070
0038
6018
6018
6018
7038
3870
1FE0
0F80
ENDCHAR
STARTCHAR 00A8
ENCODING 168
SWIDTH 360 0
DWIDTH 12 0
BBX 7 4 2 21
BITMAP
C6
C6
C6
C6
ENDCHAR
STARTCHAR 00A9
ENCODING 169
SWIDTH 750 0
DWIDTH 25 0
BBX 25 24 0 0
BITMAP
007F0000
03FFE000
07007000
1C003800
187E0C00
30FF8600
71C1C700
6380C300
E3006380
C7000180
C6000180
C6000180
C6000180
C6000180
C7006180
E380C300
61C1C300
70FF8700
307E0E00
18000C00
0E003800
0700F000
03FFC000
007F0000
ENDCHAR
STARTCHAR 00AB
ENCODING 171
SWIDTH 420 0
DWIDTH 14 0
BBX 11 13 1 3
BITMAP
1840
18E0
38C0
31C0
7180
E380
E300
E380
7180
31C0
38C0
18E0
1040
ENDCHAR
STARTCHAR 00AC
ENCODING 172
SWIDTH 600 0
DWIDTH 20 0
BBX 16 9 2 3
BITMAP
FFFF
FFFF
0003
0003
0003
0003
0003
0003
0003
ENDCHAR
STARTCHAR 00AD
ENCODING 173
SWIDTH 330 0
DWIDTH 11 0
BBX 9 2 1 9
BITMAP
FF80
FF80
ENDCHAR
STARTCHAR 00AE
ENCODING 174
SWIDTH 750 0
DWIDTH 25 0
BBX 25 24 0 0
BITMAP
007F0000
03FFE000
07007000
1C003800
19FF0C00
31FF8600
6181C700
6180C300
E180C380
C180C180
C181C180
C1FF0180
C1FF8180
C181C180
C180C180
6180C300
6180C300
7180C600
3980CE00
18000C00
0E003800
0700F000
03FFC000
007F0000
ENDCHAR
STARTCHAR 00B0
ENCODING 176
SWIDTH 390 0
DWIDTH 13 0
BBX 10 10 2 13
BITMAP
1E00
7F00
6180
C0C0
C0C0
C0C0
C0C0
6180
7F80
1E00
ENDCHAR
STARTCHAR 00B1
ENCODING 177
SWIDTH 600 0
DWIDTH 20 0
BBX 16 18 2 -1
BITMAP
0180
0180
0180
0180
0180
0180
FFFF
FFFF
0180
0180
0180
0180
0180
0180
0000
0000
FFFF
FFFF
ENDCHAR
STARTCHAR 00B4
ENCODING 180
SWIDTH 390 0
DWIDTH 13 0
BBX 8 5 3 21
BITMAP
06
1F
7C
F0
40
ENDCHAR
STARTCHAR 00B5
ENCODING 181
SWIDTH 600 0
DWIDTH 20 0
BBX 14 24 3 -6
BITMAP
C00C
C00C
C00C
C00C
C00C
C00C
C00C
C00C
C00C
C00C
C00C
C00C
E00C
E01C
F03C
F87C
DFEC
CF8C
C000
C000
C000
C000
C000
C000
ENDCHAR
STARTCHAR 00B6
ENCODING 182
SWIDTH 570 0
DWIDTH 19 0
BBX 17 28 1 -4
BITMAP
0FFF80
3FFF80
7F8600
7F8600
FF8600
FF8600
FF8600
FF8600
FF8600
FF8600
7F8600
3F8600
0F8600
018600
018600
018600
018600
018600
018600
018600
018600
018600
018600
018600
018600
018600
018600
018600
ENDCHAR
STARTCHAR 00B7
ENCODING 183
SWIDTH 270 0
DWIDTH 9 0
BBX 2 4 3 6
BITMAP
C0
C0
C0
C0
ENDCHAR
STARTCHAR 00B8
ENCODING 184
SWIDTH 330 0
DWIDTH 11 0
BBX 5 7 3 -8
BITMAP
60
40
F0
08
08
88
70
ENDCHAR
STARTCHAR 00BB
ENCODING 187
SWIDTH 420 0
DWIDTH 14 0
BBX 11 13 1 3
BITMAP
4300
E300
6380
7180
31C0
38C0
18E0
38C0
31C0
7180
6380
E300
4100
ENDCHAR
STARTCHAR 00C1
ENCODING 193
SWIDTH 750 0
DWIDTH 25 0
BBX 23 31 0 0
BITMAP
000200
000E00
003E00
00F800
00E000
000000
000000
003800
007800
007C00
006C00
00EE00
00C600
01C700
01C700
018300
038380
030180
0701C0
0601C0
0E00E0
0FFFE0
0FFFE0
1C0070
180030
380038
300038
70001C
70001C
60000C
E0000E
ENDCHAR
STARTCHAR 00C2
ENCODING 194
SWIDTH 750 0
DWIDTH 25 0
BBX 23 30 0 0
BITMAP
003800
007C00
00E600
038380
000000
000000
003800
003800
007C00
006C00
00EE00
00C600
01C700
01C700
018300
038380
030180
0701C0
0601C0
0E00E0
0FFFE0
0FFFE0
1C0070
180030
380038
300038
70001C
70001C
60000C
E0000E
ENDCHAR
STARTCHAR 00C4
ENCODING 196
SWIDTH 750 0
DWIDTH 25 0
BBX 22 30 1 0
BITMAP
00CC00
00CC00
00CC00
00CC00
000000
000000
003000
007800
007800
00FC00
00CC00
00CC00
01CE00
018600
038700
030700
070380
070380
060180
0E01C0
0FFFC0
1FFFE0
1C00E0
180070
380070
300030
700038
600018
E0001C
E0001C
ENDCHAR
STARTCHAR 00C7
ENCODING 199
SWIDTH 810 0
DWIDTH 27 0
BBX 24 31 1 -8
BITMAP
003F80
01FFF0
07E0F8
0F003C
1C000E
380007
700000
600000
600000
E00000
C00000
C00000
C00000
C00000
E00000
600000
700000
300003
380007
1C000E
0F003C
07E0F8
01FFE0
003F80
000800
001800
001E00
000300
000100
003300
001E00
ENDCHAR
STARTCHAR 00C9
ENCODING 201
SWIDTH 540 0
DWIDTH 18 0
BBX 13 31 2 0
BITMAP
0080
01C0
0780
1F00
1C00
0000
0000
FFF8
FFF8
C000
C000
C000
C000
C000
C000
C000
C000
C000
FFF8
FFF8
C000
C000
C000
C000
C000
C000
C000
C000
C000
FFF8
FFF8
ENDCHAR
STARTCHAR 00CB
ENCODING 203
SWIDTH 540 0
DWIDTH 18 0
BBX 13 30 2 0
BITMAP
18C0
18C0
18C0
18C0
0000
0000
FFF8
FFF8
C000
C000
C000
C000
C000
C000
C000
C000
C000
FFF8
FFF8
C000
C000
C000
C000
C000
C000
C000
C000
C000
FFF8
FFF8
ENDCHAR
STARTCHAR 00CD
ENCODING 205
SWIDTH 240 0
DWIDTH 8 0
BBX 7 31 2 0
BITMAP
04
0E
3C
F8
E0
00
00
60
60
60
60
60
60
60
60
60
60
60
60
60
60
60
60
60
60
60
60
60
60
60
60
ENDCHAR
STARTCHAR 00CE
ENCODING 206
SWIDTH 240 0
DWIDTH 8 0
BBX 10 30 -1 0
BITMAP
1E00
3F00
7380
E1C0
0000
0000
0C00
0C00
0C00
0C00
0C00
0C00
0C00
0C00
0C00
0C00
0C00
0C00
0C00
0C00
0C00
0C00
0C00
0C00
0C00
0C00
0C00
0C00
0C00
0C00
ENDCHAR
STARTCHAR 00D3
ENCODING 211
SWIDTH 870 0
DWIDTH 29 0
BBX 26 30 1 1
BITMAP
0000C000
0003E000
000F8000
001E0000
00180000
00000000
007F8000
01FFE000
07C1F800
0F003C00
1C000E00
38000700
30000380
60000180
60000180
E00001C0
C00000C0
C00000C0
C00000C0
C00000C0
E00000C0
60000180
60000180
70000380
38000700
1C000E00
0F003C00
07E0F800
01FFE000
007F8000
ENDCHAR
STARTCHAR 00D4
ENCODING 212
SWIDTH 870 0
DWIDTH 29 0
BBX 26 30 1 0
BITMAP
001E0000
003F0000
00738000
00E1C000
00000000
00000000
007F8000
01FFE000
07C1F800
0F003C00
1C000E00
38000700
30000380
60000180
60000180
E00001C0
C00000C0
C00000C0
C00000C0
C00000C0
E00000C0
60000180
60000180
70000380
38000700
1C000E00
0F003C00
07E0F800
01FFE000
007F8000
ENDCHAR
STARTCHAR 00D5
ENCODING 213
SWIDTH 870 0
DWIDTH 29 0
BBX 26 30 1 1
BITMAP
00F84000
01FFC000
0087C000
00000000
00000000
00000000
007F8000
01FFE000
07C1F800
0F003C00
1C000E00
38000700
30000380
60000180
60000180
E00001C0
C00000C0
C00000C0
C00000C0
C00000C0
E00000C0
60000180
60000180
70000380
38000700
1C000E00
0F003C00
07E0F800
01FFE000
007F8000
ENDCHAR
STARTCHAR 00D6
ENCODING 214
SWIDTH 870 0
DWIDTH 29 0
BBX 26 30 1 0
BITMAP
00330000
00330000
00330000
00330000
00000000
00000000
007F8000
01FFE000
07C0F800
0F003C00
1C000E00
38000700
30000380
60000180
60000180
E00001C0
C00000C0
C00000C0
C00000C0
C00000C0
E00000C0
60000180
60000180
70000380
38000700
1C000E00
0F003C00
07E0F800
01FFE000
007F8000
ENDCHAR
STARTCHAR 00D7
ENCODING 215
SWIDTH 600 0
DWIDTH 20 0
BBX 15 15 2 1
BITMAP
4004
E00E
701C
3838
1C70
0EE0
07C0
0380
07C0
0EE0
1C70
3838
701C
E00E
4004
ENDCHAR
STARTCHAR 00DA
ENCODING 218
SWIDTH 660 0
DWIDTH 22 0
BBX 16 31 3 0
BITMAP
0010
0070
01F0
07C0
0700
0000
0000
C003
C003
C003
C003
C003
C003
C003
C003
C003
C003
C003
C003
C003
C003
C003
C003
C003
C003
E007
6006
700E
3C3C
1FF8
07E0
ENDCHAR
STARTCHAR 00DC
ENCODING 220
SWIDTH 660 0
DWIDTH 22 0
BBX 16 30 3 0
BITMAP
0C60
0C60
0C60
0C60
0000
0000
C003
C003
C003
C003
C003
C003
C003
C003
C003
C003
C003
C003
C003
C003
C003
C003
C003
C003
E006
6006
700E
3C7C
1FF8
07E0
ENDCHAR
STARTCHAR 00DD
ENCODING 221
SWIDTH 600 0
DWIDTH 20 0
BBX 18 31 0 0
BITMAP
000800
003800
00F800
01E000
018000
010000
000000
E000C0
E001C0
700180
700380
380300
380700
1C0600
0C0E00
0E0C00
061C00
071800
033800
03B000
01E000
01E000
00C000
00C000
00C000
00C000
00C000
00C000
00C000
00C000
00C000
ENDCHAR
STARTCHAR 00DF
ENCODING 223
SWIDTH 540 0
DWIDTH 18 0
BBX 15 24 2 0
BITMAP
0F80
3FE0
78F0
6038
E018
C018
C018
C018
C018
C038
C0F0
C7C0
C7F8
C03C
C00C
C00E
C006
F006
F006
F00E
F80C
DC3C
CFF8
C3E0
ENDCHAR
STARTCHAR 00E1
ENCODING 225
SWIDTH 690 0
DWIDTH 23 0
BBX 19 25 1 1
BITMAP
001800
007C00
00F000
03C000
010000
000000
000000
01F860
0FFE60
1E0F60
3803E0
7001E0
6000E0
E000E0
C00060
C00060
C00060
C00060
E00060
6000E0
7001E0
3803E0
1E0F60
0FFE60
03F860
ENDCHAR
STARTCHAR 00E2
ENCODING 226
SWIDTH 690 0
DWIDTH 23 0
BBX 19 25 1 0
BITMAP
00F000
01F800
039C00
070E00
000000
000000
000000
01F860
0FFE60
1E0F60
3803E0
7001E0
6000E0
E000E0
C00060
C00060
C00060
C00060
E00060
6000E0
7001E0
3803E0
1E0F60
0FFE60
03F860
ENDCHAR
STARTCHAR 00E4
ENCODING 228
SWIDTH 690 0
DWIDTH 23 0
BBX 19 25 1 0
BITMAP
019800
019800
019800
019800
000000
000000
000000
01F860
0FFE60
1E0F60
3803E0
7001E0
6000E0
E000E0
C00060
C00060
C00060
C00060
E00060
6000E0
7001E0
3803E0
1E0F60
0FFE60
03F860
ENDCHAR
STARTCHAR 00E7
ENCODING 231
SWIDTH 660 0
DWIDTH 22 0
BBX 19 25 1 -8
BITMAP
01F800
07FE00
1F0780
3801C0
7000C0
6000E0
E00000
C00000
C00000
C00000
C00000
E00000
600000
7000C0
3801C0
1E0780
0FFF00
03FC00
004000
00C000
00F000
001800
000800
019800
00F000
ENDCHAR
STARTCHAR 00E9
ENCODING 233
SWIDTH 660 0
DWIDTH 22 0
BBX 18 25 1 1
BITMAP
003000
007800
01E000
038000
030000
000000
000000
03F000
0FFC00
1E1E00
380700
700380
6001C0
E000C0
C000C0
FFFFC0
FFFFC0
C00000
C00000
6001C0
700380
380700
1E0E00
0FFC00
03F000
ENDCHAR
STARTCHAR 00EB
ENCODING 235
SWIDTH 660 0
DWIDTH 22 0
BBX 19 25 1 0
BITMAP
031800
031800
031800
031800
000000
000000
000000
03F000
0FFC00
1E0F00
380380
700180
6001C0
E000C0
C000E0
FFFFE0
FFFFE0
C00000
C00000
6000C0
700180
380380
1E0F00
0FFE00
03F000
ENDCHAR
STARTCHAR 00ED
ENCODING 237
SWIDTH 210 0
DWIDTH 7 0
BBX 7 25 1 1
BITMAP
0E
3E
F8
E0
00
00
00
60
60
60
60
60
60
60
60
60
60
60
60
60
60
60
60
60
60
ENDCHAR
STARTCHAR 00EE
ENCODING 238
SWIDTH 210 0
DWIDTH 7 0
BBX 10 25 -2 0
BITMAP
1E00
3F00
7380
E1C0
0000
0000
0000
0C00
0C00
0C00
0C00
0C00
0C00
0C00
0C00
0C00
0C00
0C00
0C00
0C00
0C00
0C00
0C00
0C00
0C00
ENDCHAR
STARTCHAR 00F3
ENCODING 243
SWIDTH 660 0
DWIDTH 22 0
BBX 19 25 1 1
BITMAP
000C00
003E00
00F800
01E000
008000
000000
000000
01F800
0FFE00
1E0F00
380380
7001C0
6000C0
E000E0
C00060
C00060
C00060
C00060
E000E0
6000C0
7001C0
380380
1E0F00
0FFE00
03F800
ENDCHAR
STARTCHAR 00F4
ENCODING 244
SWIDTH 660 0
DWIDTH 22 0
BBX 19 25 1 0
BITMAP
00E000
01F800
071C00
0E0E00
000000
000000
000000
01F800
0FFE00
1E0F00
380380
7001C0
6000C0
E000E0
C00060
C00060
C00060
C00060
E000E0
6000C0
7001C0
380380
1E0F00
0FFE00
03F800
ENDCHAR
STARTCHAR 00F5
ENCODING 245
SWIDTH 660 0
DWIDTH 22 0
BBX 19 24 1 0
BITMAP
07C400
0FFE00
087C00
000000
000000
000000
01F800
0FFE00
1E0F00
380380
7001C0
6000C0
E000E0
C00060
C00060
C00060
C00060
E000E0
6000C0
7001C0
380380
1E0F00
0FFE00
03F800
ENDCHAR
STARTCHAR 00F6
ENCODING 246
SWIDTH 660 0
DWIDTH 22 0
BBX 19 25 1 0
BITMAP
031800
031800
031800
031800
000000
000000
000000
01F800
0FFE00
1E0F00
380380
7001C0
6000C0
E000E0
C00060
C00060
C00060
C00060
E000E0
6000C0
7001C0
380380
1E0F00
0FFE00
03F800
ENDCHAR
STARTCHAR 00F7
ENCODING 247
SWIDTH 600 0
DWIDTH 20 0
BBX 16 17 2 0
BITMAP
0180
0180
0180
0180
0000
0000
0000
0000
FFFF
FFFF
0000
0000
0000
0180
0180
0180
0180
ENDCHAR
STARTCHAR 00FA
ENCODING 250
SWIDTH 600 0
DWIDTH 20 0
BBX 15 25 2 1
BITMAP
0070
01E0
07C0
0700
0000
0000
0000
C006
C006
C006
C006
C006
C006
C006
C006
C006
C006
C006
C006
E006
600E
701E
383E
1FF6
0FC6
ENDCHAR
STARTCHAR 00FC
ENCODING 252
SWIDTH 600 0
DWIDTH 20 0
BBX 15 25 2 0
BITMAP
0C60
0C60
0C60
0C60
0000
0000
0000
C006
C006
C006
C006
C006
C006
C006
C006
C006
C006
C006
C006
E006
600E
701E
383E
1FF6
0FC6
ENDCHAR
STARTCHAR 00FD
ENCODING 253
SWIDTH 540 0
DWIDTH 18 0
BBX 17 32 0 -6
BITMAP
001000
003800
00F000
03E000
038000
000000
000000
000000
E00380
600300
700700
700600
300600
380E00
180C00
1C1C00
0C1800
0C3800
0E3000
067000
076000
036000
03E000
03C000
01C000
018000
018000
030000
030000
060000
060000
0E0000
ENDCHAR
STARTCHAR 0100
ENCODING 256
SWIDTH 750 0
DWIDTH 25 0
BBX 23 29 0 1
BITMAP
03FF80
03FF80
000000
000000
000000
003800
007800
007C00
006C00
00EE00
00C600
01C700
01C700
018300
038380
030180
0701C0
0601C0
0E00E0
0FFFE0
0FFFE0
1C0070
180030
380038
300038
70001C
70001C
60000C
E0000E
ENDCHAR
STARTCHAR 0101
ENCODING 257
SWIDTH 690 0
DWIDTH 23 0
BBX 19 24 1 1
BITMAP
0FFF00
0FFF00
000000
000000
000000
000000
01F860
0FFE60
1E0F60
3803E0
7001E0
6000E0
E000E0
C00060
C00060
C00060
C00060
E00060
6000E0
7001E0
3803E0
1E0F60
0FFE60
03F860
ENDCHAR
STARTCHAR 0102
ENCODING 258
SWIDTH 750 0
DWIDTH 25 0
BBX 23 31 0 0
BITMAP
030180
038380
01FF00
007C00
000000
000000
000000
003800
003800
007C00
006C00
00EE00
00C600
01C700
01C700
018300
038380
030180
0701C0
0601C0
0E00E0
0FFFE0
0FFFE0
1C0070
180030
380038
300038
70001C
70001C
60000C
E0000E
ENDCHAR
STARTCHAR 0103
ENCODING 259
SWIDTH 690 0
DWIDTH 23 0
BBX 19 24 1 0
BITMAP
0E0700
07FE00
01F800
000000
000000
000000
01F860
0FFE60
1E0F60
3803E0
7001E0
6000E0
E000E0
C00060
C00060
C00060
C00060
E00060
6000E0
7001E0
3803E0
1E0F60
0FFE60
03F860
ENDCHAR
STARTCHAR 0104
ENCODING 260
SWIDTH 750 0
DWIDTH 25 0
BBX 24 30 0 -6
BITMAP
003800
003C00
007C00
006E00
00EE00
00E700
00C700
01C300
018380
038180
0301C0
0701C0
0700E0
0600E0
0FFFF0
0FFFF0
1C0030
180038
380038
38001C
30001C
70000E
60000E
E00007
000004
000008
000018
000018
00000F
000007
ENDCHAR
STARTCHAR 0105
ENCODING 261
SWIDTH 690 0
DWIDTH 23 0
BBX 19 24 1 -6
BITMAP
01F860
0FFE60
1E0F60
3803E0
7001E0
6000E0
E00060
C00060
C00060
C00060
C00060
E00060
6000E0
7001E0
3803E0
1E0F60
0FFE60
01F860
0000C0
000180
000180
000180
0001E0
0000E0
ENDCHAR
STARTCHAR 0106
ENCODING 262
SWIDTH 810 0
DWIDTH 27 0
BBX 24 30 1 1
BITMAP
000180
0007C0
001F00
003C00
001000
000000
007F00
03FFE0
07C1F0
0E003C
1C001C
38000E
700000
600000
600000
E00000
C00000
C00000
C00000
C00000
E00000
600000
600000
700007
38000E
1C001C
0F0038
07C1F0
03FFC0
007F00
ENDCHAR
STARTCHAR 0107
ENCODING 263
SWIDTH 660 0
DWIDTH 22 0
BBX 18 25 1 1
BITMAP
003800
007800
01E000
03C000
030000
000000
000000
03F800
0FFE00
1E0F00
380380
7001C0
6000C0
E00000
C00000
C00000
C00000
C00000
E00000
6000C0
7001C0
380380
1E0F00
0FFE00
03F800
ENDCHAR
STARTCHAR 010C
ENCODING 268
SWIDTH 810 0
DWIDTH 27 0
BBX 24 30 1 0
BITMAP
00E1C0
007380
003F00
001C00
000000
000000
007F00
03FFE0
07C1F0
0E003C
1C001C
38000E
700000
600000
600000
E00000
C00000
C00000
C00000
C00000
E00000
600000
600000
700007
38000E
1C001C
0F0038
07C1F0
03FFC0
007F00
ENDCHAR
STARTCHAR 010D
ENCODING 269
SWIDTH 660 0
DWIDTH 22 0
BBX 18 25 1 0
BITMAP
0E1C00
073800
03F000
01E000
000000
000000
000000
03F800
0FFE00
1E0F00
380380
7001C0
6000C0
E00000
C00000
C00000
C00000
C00000
E00000
6000C0
7001C0
380380
1E0F00
0FFE00
03F800
ENDCHAR
STARTCHAR 010E
ENCODING 270
SWIDTH 750 0
DWIDTH 25 0
BBX 20 30 2 0
BITMAP
383800
1CF000
07C000
038000
000000
000000
FFE000
FFFC00
C07F00
C00780
C003C0
C001C0
C000E0
C00060
C00070
C00030
C00030
C00030
C00030
C00030
C00030
C00070
C00060
C000E0
C000C0
C001C0
C00780
C03E00
FFFC00
FFE000
ENDCHAR
STARTCHAR 010F
ENCODING 271
SWIDTH 750 0
DWIDTH 25 0
BBX 24 24 1 0
BITMAP
000063
000063
000067
000066
00006E
00006C
03F860
0FFE60
1E0F60
3803E0
7001E0
6000E0
E000E0
C00060
C00060
C00060
C00060
E000E0
6000E0
7001E0
3803E0
1E0F60
0FFE60
03F860
ENDCHAR
STARTCHAR 0110
ENCODING 272
SWIDTH 780 0
DWIDTH 26 0
BBX 23 24 1 0
BITMAP
1FFC00
1FFF80
180FC0
1800E0
180070
180038
18001C
18000C
18000C
18000E
180006
FFF006
FFF006
180006
180006
18000E
18000C
18001C
180018
180078
1800F0
1807E0
1FFF80
1FFC00
ENDCHAR
STARTCHAR 0111
ENCODING 273
SWIDTH 690 0
DWIDTH 23 0
BBX 21 24 1 0
BITMAP
000060
000060
000060
000FF8
000FF8
000060
03F860
0FFE60
1E0F60
3803E0
7001E0
6000E0
E000E0
C00060
C00060
C00060
C00060
E000E0
6000E0
7001E0
3803E0
1E0F60
0FFE60
03F860
ENDCHAR
STARTCHAR 0112
ENCODING 274
SWIDTH 540 0
DWIDTH 18 0
BBX 13 29 2 1
BITMAP
7FF0
7FF0
0000
0000
0000
FFF8
FFF8
C000
C000
C000
C000
C000
C000
C000
C000
C000
FFF8
FFF8
C000
C000
C000
C000
C000
C000
C000
C000
C000
FFF8
FFF8
ENDCHAR
STARTCHAR 0113
ENCODING 275
SWIDTH 660 0
DWIDTH 22 0
BBX 18 24 1 1
BITMAP
1FFE00
1FFE00
000000
000000
000000
000000
03F000
0FFC00
1E1E00
380700
700380
6001C0
E000C0
C000C0
FFFFC0
FFFFC0
C00000
C00000
6001C0
700380
380700
1E0E00
0FFC00
03F000
ENDCHAR
STARTCHAR 0116
ENCODING 278
SWIDTH 540 0
DWIDTH 18 0
BBX 14 30 2 0
BITMAP
0300
0300
0300
0300
0000
0000
FFFC
FFFC
C000
C000
C000
C000
C000
C000
C000
C000
C000
FFF8
FFF8
C000
C000
C000
C000
C000
C000
C000
C000
C000
FFFC
FFFC
ENDCHAR
STARTCHAR 0117
ENCODING 279
SWIDTH 660 0
DWIDTH 22 0
BBX 18 25 1 0
BITMAP
00C000
00C000
00C000
00C000
000000
000000
000000
03F000
0FFC00
1E1E00
380700
700380
600180
E001C0
C000C0
FFFFC0
FFFFC0
C00000
C00000
6001C0
700380
380700
1E0E00
0FFC00
03F000
ENDCHAR
STARTCHAR 0118
ENCODING 280
SWIDTH 540 0
DWIDTH 18 0
BBX 13 30 2 -6
BITMAP
FFF8
FFF8
C000
C000
C000
C000
C000
C000
C000
C000
C000
FFF8
FFF8
C000
C000
C000
C000
C000
C000
C000
C000
C000
FFF8
FFF8
0030
0060
00C0
00C0
0078
0038
ENDCHAR
STARTCHAR 0119
ENCODING 281
SWIDTH 660 0
DWIDTH 22 0
BBX 19 24 1 -6
BITMAP
01F800
07FE00
1E0F00
380380
7001C0
6000C0
E000E0
C00060
FFFFE0
FFFFE0
C00000
C00000
6000C0
7001C0
380380
1E0F00
0FFE00
01F800
006000
00C000
00C000
00C000
00F800
007800
ENDCHAR
STARTCHAR 011A
ENCODING 282
SWIDTH 540 0
DWIDTH 18 0
BBX 13 30 2 0
BITMAP
70E0
39C0
1F80
0F00
0000
0000
FFF8
FFF8
C000
C000
C000
C000
C000
C000
C000
C000
C000
FFF8
FFF8
C000
C000
C000
C000
C000
C000
C000
C000
C000
FFF8
FFF8
ENDCHAR
STARTCHAR 011B
ENCODING 283
SWIDTH 660 0
DWIDTH 22 0
BBX 18 25 1 0
BITMAP
0E1C00
073800
03F000
01E000
000000
000000
000000
03F000
0FFC00
1E1E00
380700
700380
6001C0
E000C0
C000C0
FFFFC0
FFFFC0
C00000
C00000
6001C0
700380
380700
1E0E00
0FFC00
03F000
ENDCHAR
STARTCHAR 0122
ENCODING 290
SWIDTH 870 0
DWIDTH 29 0
BBX 25 31 1 -7
BITMAP
007F0000
01FFE000
07C1F800
0E003C00
1C001E00
38000F00
70000700
60000000
60000000
E0000000
C0000000
C0000000
C0000000
C07FFF80
E07FFF80
60000380
60000380
70000700
38000700
1C001E00
0F003C00
07C1F800
01FFE000
007F0000
00000000
000C0000
00180000
00180000
00380000
00300000
00300000
ENDCHAR
STARTCHAR 0123
ENCODING 291
SWIDTH 660 0
DWIDTH 22 0
BBX 19 32 1 -6
BITMAP
003000
003000
006000
006000
00C000
00C000
000000
000000
01F860
0FFE60
1E0F60
3803E0
7001E0
6000E0
E000E0
C00060
C00060
C00060
C00060
E000E0
6000E0
7001E0
3803E0
1E0F60
0FFE60
03F860
6000E0
7000C0
3801C0
1E0780
0FFF00
01FC00
ENDCHAR
STARTCHAR 012A
ENCODING 298
SWIDTH 240 0
DWIDTH 8 0
BBX 9 29 -1 1
BITMAP
FF80
FF80
0000
0000
0000
0C00
0C00
0C00
0C00
0C00
0C00
0C00
0C00
0C00
0C00
0C00
0C00
0C00
0C00
0C00
0C00
0C00
0C00
0C00
0C00
0C00
0C00
0C00
0C00
ENDCHAR
STARTCHAR 012B
ENCODING 299
SWIDTH 210 0
DWIDTH 7 0
BBX 10 24 -2 1
BITMAP
FFC0
FFC0
0000
0000
0000
0000
0C00
0C00
0C00
0C00
0C00
0C00
0C00
0C00
0C00
0C00
0C00
0C00
0C00
0C00
0C00
0C00
0C00
0C00
ENDCHAR
STARTCHAR 012E
ENCODING 302
SWIDTH 240 0
DWIDTH 8 0
BBX 5 30 1 -6
BITMAP
30
30
30
30
30
30
30
30
30
30
30
30
30
30
30
30
30
30
30
30
30
30
30
30
60
40
C0
C0
E8
78
ENDCHAR
STARTCHAR 012F
ENCODING 303
SWIDTH 210 0
DWIDTH 7 0
BBX 5 30 0 -6
BITMAP
30
30
30
30
00
00
30
30
30
30
30
30
30
30
30
30
30
30
30
30
30
30
30
30
60
40
C0
C0
68
38
ENDCHAR
STARTCHAR 0136
ENCODING 310
SWIDTH 600 0
DWIDTH 20 0
BBX 16 30 3 -6
BITMAP
C007
C00E
C01C
C038
C038
C070
C0E0
C1C0
C380
C700
C700
CE00
DE00
FF00
F380
F1C0
E1C0
C0E0
C070
C038
C03C
C01C
C00E
C007
0300
0700
0600
0E00
0C00
0C00
ENDCHAR
STARTCHAR 0137
ENCODING 311
SWIDTH 510 0
DWIDTH 17 0
BBX 13 30 2 -6
BITMAP
C000
C000
C000
C000
C000
C000
C038
C070
C070
C0E0
C1C0
C380
C300
C700
CE00
DE00
DF00
FB00
F380
E1C0
C0E0
C070
C038
C038
0600
0600
0C00
0C00
1800
1800
ENDCHAR
STARTCHAR 0139
ENCODING 313
SWIDTH 450 0
DWIDTH 15 0
BBX 12 31 3 0
BITMAP
0100
0700
1F00
7C00
7000
0000
0000
C000
C000
C000
C000
C000
C000
C000
C000
C000
C000
C000
C000
C000
C000
C000
C000
C000
C000
C000
C000
C000
C000
FFF0
FFF0
ENDCHAR
STARTCHAR 013A
ENCODING 314
SWIDTH 210 0
DWIDTH 7 0
BBX 7 31 1 0
BITMAP
04
1E
3C
F0
E0
00
00
60
60
60
60
60
60
60
60
60
60
60
60
60
60
60
60
60
60
60
60
60
60
60
60
ENDCHAR
STARTCHAR 013B
ENCODING 315
SWIDTH 450 0
DWIDTH 15 0
BBX 12 31 3 -7
BITMAP
C000
C000
C000
C000
C000
C000
C000
C000
C000
C000
C000
C000
C000
C000
C000
C000
C000
C000
C000
C000
C000
C000
FFF0
FFF0
0000
0E00
0C00
0C00
1800
1800
3000
ENDCHAR
STARTCHAR 013C
ENCODING 316
SWIDTH 210 0
DWIDTH 7 0
BBX 4 31 0 -7
BITMAP
30
30
30
30
30
30
30
30
30
30
30
30
30
30
30
30
30
30
30
30
30
30
30
30
00
30
30
60
60
E0
C0
ENDCHAR
STARTCHAR 013D
ENCODING 317
SWIDTH 450 0
DWIDTH 15 0
BBX 12 24 3 0
BITMAP
C070
C060
C0E0
C0C0
C0C0
C180
C000
C000
C000
C000
C000
C000
C000
C000
C000
C000
C000
C000
C000
C000
C000
C000
FFF0
FFF0
ENDCHAR
STARTCHAR 013E
ENCODING 318
SWIDTH 270 0
DWIDTH 9 0
BBX 8 24 2 0
BITMAP
C7
C6
C6
CC
CC
D8
C0
C0
C0
C0
C0
C0
C0
C0
C0
C0
C0
C0
C0
C0
C0
C0
C0
C0
ENDCHAR
STARTCHAR 0141
ENCODING 321
SWIDTH 510 0
DWIDTH 17 0
BBX 15 24 2 0
BITMAP
1800
1800
1800
1800
1800
1800
1840
18C0
19C0
1F80
1E00
1C00
7800
F800
D800
1800
1800
1800
1800
1800
1800
1800
1FFE
1FFE
ENDCHAR
STARTCHAR 0142
ENCODING 322
SWIDTH 300 0
DWIDTH 10 0
BBX 6 24 2 0
BITMAP
30
30
30
30
30
30
30
30
34
3C
38
70
F0
B0
30
30
30
30
30
30
30
30
30
30
ENDCHAR
STARTCHAR 0143
ENCODING 323
SWIDTH 750 0
DWIDTH 25 0
BBX 18 31 3 0
BITMAP
000800
003800
00F800
01E000
018000
000000
000000
E000C0
F000C0
F800C0
F800C0
DC00C0
CC00C0
CE00C0
C700C0
C300C0
C380C0
C1C0C0
C0C0C0
C0E0C0
C070C0
C030C0
C038C0
C01CC0
C00CC0
C00EC0
C007C0
C003C0
C003C0
C001C0
C000C0
ENDCHAR
STARTCHAR 0144
ENCODING 324
SWIDTH 600 0
DWIDTH 20 0
BBX 16 25 2 1
BITMAP
0030
00F8
03E0
0780
0200
0000
0000
C7E0
DFF8
FC3C
F00E
E006
E007
C003
C003
C003
C003
C003
C003
C003
C003
C003
C003
C003
C003
ENDCHAR
STARTCHAR 0145
ENCODING 325
SWIDTH 750 0
DWIDTH 25 0
BBX 18 30 3 -6
BITMAP
E000C0
F000C0
F800C0
F800C0
DC00C0
CC00C0
CE00C0
C700C0
C300C0
C380C0
C1C0C0
C0C0C0
C0E0C0
C070C0
C030C0
C038C0
C01CC0
C00CC0
C00EC0
C007C0
C003C0
C003C0
C001C0
C000C0
00C000
00C000
018000
018000
038000
030000
ENDCHAR
STARTCHAR 0146
ENCODING 326
SWIDTH 600 0
DWIDTH 20 0
BBX 16 24 2 -6
BITMAP
C7E0
DFF8
FC3C
F00E
E006
E007
C003
C003
C003
C003
C003
C003
C003
C003
C003
C003
C003
C003
0180
0180
0300
0300
0600
0600
ENDCHAR
STARTCHAR 0147
ENCODING 327
SWIDTH 750 0
DWIDTH 25 0
BBX 18 30 3 0
BITMAP
0E1C00
073800
03F000
01E000
000000
000000
E000C0
F000C0
F800C0
F800C0
DC00C0
CC00C0
CE00C0
C700C0
C300C0
C380C0
C1C0C0
C0C0C0
C0E0C0
C070C0
C030C0
C038C0
C01CC0
C00CC0
C00EC0
C007C0
C003C0
C003C0
C001C0
C000C0
ENDCHAR
STARTCHAR 0148
ENCODING 328
SWIDTH 600 0
DWIDTH 20 0
BBX 16 25 2 0
BITMAP
3C38
0E70
07E0
03C0
0000
0000
0000
C7E0
DFF8
FC3C
F00E
E006
E007
C003
C003
C003
C003
C003
C003
C003
C003
C003
C003
C003
C003
ENDCHAR
STARTCHAR 014C
ENCODING 332
SWIDTH 870 0
DWIDTH 29 0
BBX 26 29 1 1
BITMAP
01FFE000
01FFE000
00000000
00000000
00000000
007F8000
01FFE000
07C1F800
0F003C00
1C000E00
38000700
30000380
60000180
60000180
E00001C0
C00000C0
C00000C0
C00000C0
C00000C0
E00000C0
60000180
60000180
70000380
38000700
1C000E00
0F003C00
07E0F800
01FFE000
007F8000
ENDCHAR
STARTCHAR 014D
ENCODING 333
SWIDTH 660 0
DWIDTH 22 0
BBX 19 24 1 1
BITMAP
0FFE00
0FFE00
000000
000000
000000
000000
01F800
0FFE00
1E0F00
380380
7001C0
6000C0
E000E0
C00060
C00060
C00060
C00060
E000E0
6000C0
7001C0
380380
1E0F00
0FFE00
03F800
ENDCHAR
STARTCHAR 0150
ENCODING 336
SWIDTH 870 0
DWIDTH 29 0
BBX 26 30 1 1
BITMAP
00030C00
000F3C00
001C7000
0038E000
0030C000
00000000
007F8000
01FFE000
07C1F800
0F003C00
1C000E00
38000700
30000380
60000180
60000180
E00001C0
C00000C0
C00000C0
C00000C0
C00000C0
E00000C0
60000180
60000180
70000380
38000700
1C000E00
0F003C00
07E0F800
01FFE000
007F8000
ENDCHAR
STARTCHAR 0151
ENCODING 337
SWIDTH 660 0
DWIDTH 22 0
BBX 19 25 1 1
BITMAP
003080
00F380
01C700
038E00
030C00
020000
000000
01F800
0FFE00
1E0F00
380380
7001C0
6000C0
E000E0
C00060
C00060
C00060
C00060
E000E0
6000C0
7001C0
380380
1E0F00
0FFE00
03F800
ENDCHAR
STARTCHAR 0154
ENCODING 340
SWIDTH 600 0
DWIDTH 20 0
BBX 16 31 2 0
BITMAP
0020
00E0
03E0
0F80
0E00
0000
0000
FFE0
FFF8
C03C
C00E
C007
C003
C003
C003
C003
C003
C007
C00E
C03E
C7FC
C3F0
C180
C1C0
C0E0
C070
C030
C038
C01C
C00E
C006
ENDCHAR
STARTCHAR 0155
ENCODING 341
SWIDTH 300 0
DWIDTH 10 0
BBX 9 25 2 1
BITMAP
0300
0F80
3E00
7800
2000
0000
0000
C600
DE00
FE00
F000
E000
E000
C000
C000
C000
C000
C000
C000
C000
C000
C000
C000
C000
C000
ENDCHAR
STARTCHAR 0156
ENCODING 342
SWIDTH 600 0
DWIDTH 20 0
BBX 16 30 2 -6
BITMAP
FFE0
FFF8
C03C
C00E
C007
C003
C003
C003
C003
C003
C007
C00E
C03E
C7FC
C3F0
C1C0
C1C0
C0E0
C070
C030
C038
C01C
C00E
C006
0180
0300
0300
0700
0600
0E00
ENDCHAR
STARTCHAR 0157
ENCODING 343
SWIDTH 300 0
DWIDTH 10 0
BBX 9 25 0 -7
BITMAP
3180
3780
3F80
3C00
3800
3800
3000
3000
3000
3000
3000
3000
3000
3000
3000
3000
3000
3000
0000
3800
3000
3000
6000
6000
C000
ENDCHAR
STARTCHAR 0158
ENCODING 344
SWIDTH 600 0
DWIDTH 20 0
BBX 16 30 2 0
BITMAP
3838
1CE0
0FC0
0380
0000
0000
FFE0
FFF8
C03C
C00E
C007
C003
C003
C003
C003
C003
C007
C00E
C03E
C7FC
C3F0
C180
C1C0
C0E0
C070
C030
C038
C01C
C00E
C006
ENDCHAR
STARTCHAR 0159
ENCODING 345
SWIDTH 300 0
DWIDTH 10 0
BBX 11 25 0 0
BITMAP
E0E0
7180
1F00
0E00
0000
0000
0000
3180
3780
3F80
3C00
3800
3800
3000
3000
3000
3000
3000
3000
3000
3000
3000
3000
3000
3000
ENDCHAR
STARTCHAR 015A
ENCODING 346
SWIDTH 510 0
DWIDTH 17 0
BBX 15 30 0 1
BITMAP
0070
01F0
07C0
0F00
0400
0000
07E0
1FF8
3C3C
300C
700E
6006
6000
7000
3800
3C00
1FC0
07F0
0078
001C
000E
0006
0006
E006
6006
600E
700C
3C3C
1FF0
07E0
ENDCHAR
STARTCHAR 015B
ENCODING 347
SWIDTH 390 0
DWIDTH 13 0
BBX 11 25 1 1
BITMAP
0180
0780
1F00
3C00
3000
0000
0000
1F00
7F80
61C0
C0C0
C0C0
C000
E000
7C00
3F00
07C0
01E0
00E0
C060
C060
E0E0
71C0
7F80
1F00
ENDCHAR
STARTCHAR 0160
ENCODING 352
SWIDTH 510 0
DWIDTH 17 0
BBX 15 30 0 0
BITMAP
3838
0E70
07E0
03C0
0000
0000
07E0
1FF8
3C3C
300C
700E
6006
6000
7000
3800
3C00
1FC0
07F0
0078
001C
000E
0006
0006
E006
6006
600E
700C
3C3C
1FF0
07E0
ENDCHAR
STARTCHAR 0161
ENCODING 353
SWIDTH 390 0
DWIDTH 13 0
BBX 11 25 1 0
BITMAP
E1C0
7380
3F00
1E00
0000
0000
0000
1F00
7F80
61C0
C0C0
C0C0
C000
E000
7C00
3F00
07C0
01E0
00E0
C060
C060
E0E0
71C0
7F80
1F00
ENDCHAR
STARTCHAR 0162
ENCODING 354
SWIDTH 420 0
DWIDTH 14 0
BBX 14 31 0 -7
BITMAP
FFFC
FFFC
0300
0300
0300
0300
0300
0300
0300
0300
0300
0300
0300
0300
0300
0300
0300
0300
0300
0300
0300
0300
0300
0300
0000
0300
0300
0600
0600
0C00
0C00
ENDCHAR
STARTCHAR 0163
ENCODING 355
SWIDTH 330 0
DWIDTH 11 0
BBX 10 31 0 -7
BITMAP
0C00
0C00
0C00
0C00
0C00
0C00
FFC0
FFC0
0C00
0C00
0C00
0C00
0C00
0C00
0C00
0C00
0C00
0C00
0C00
0C00
0C00
0C00
0C00
0C00
0000
0C00
0C00
1C00
1800
1800
3000
ENDCHAR
STARTCHAR 0164
ENCODING 356
SWIDTH 420 0
DWIDTH 14 0
BBX 14 30 0 0
BITMAP
3870
1CE0
0FC0
0700
0000
0000
FFFC
FFFC
0300
0300
0300
0300
0300
0300
0300
0300
0300
0300
0300
0300
0300
0300
0300
0300
0300
0300
0300
0300
0300
0300
ENDCHAR
STARTCHAR 0165
ENCODING 357
SWIDTH 360 0
DWIDTH 12 0
BBX 12 26 0 0
BITMAP
0030
0030
0C60
0C60
0C60
0CC0
0C00
0C00
FFC0
FFC0
0C00
0C00
0C00
0C00
0C00
0C00
0C00
0C00
0C00
0C00
0C00
0C00
0C00
0C00
0C00
0C00
ENDCHAR
STARTCHAR 016A
ENCODING 362
SWIDTH 660 0
DWIDTH 22 0
BBX 16 29 3 1
BITMAP
3FFC
3FFC
0000
0000
0000
C003
C003
C003
C003
C003
C003
C003
C003
C003
C003
C003
C003
C003
C003
C003
C003
C003
C003
E007
6006
700E
3C3C
1FF8
07E0
ENDCHAR
STARTCHAR 016B
ENCODING 363
SWIDTH 600 0
DWIDTH 20 0
BBX 15 24 2 1
BITMAP
3FF8
3FF8
0000
0000
0000
0000
C006
C006
C006
C006
C006
C006
C006
C006
C006
C006
C006
C006
E006
600E
701E
383E
1FF6
0FC6
ENDCHAR
STARTCHAR 016E
ENCODING 366
SWIDTH 660 0
DWIDTH 22 0
BBX 16 32 3 0
BITMAP
0380
07E0
0E60
0C60
0E60
0FE0
07C0
0380
C003
C003
C003
C003
C003
C003
C003
C003
C003
C003
C003
C003
C003
C003
C003
C003
C003
C003
E006
6006
700E
3C7C
1FF8
07E0
ENDCHAR
STARTCHAR 016F
ENCODING 367
SWIDTH 600 0
DWIDTH 20 0
BBX 15 27 2 0
BITMAP
01C0
03E0
0670
0630
0670
07E0
03C0
0000
0000
C006
C006
C006
C006
C006
C006
C006
C006
C006
C006
C006
C006
E006
600E
701E
3C3E
1FF6
07C6
ENDCHAR
STARTCHAR 0170
ENCODING 368
SWIDTH 660 0
DWIDTH 22 0
BBX 16 31 3 0
BITMAP
0082
01C6
039C
0E38
1C70
0820
0000
C003
C003
C003
C003
C003
C003
C003
C003
C003
C003
C003
C003
C003
C003
C003
C003
C003
C003
E007
6006
700E
3C3C
1FF8
07E0
ENDCHAR
STARTCHAR 0171
ENCODING 369
SWIDTH 600 0
DWIDTH 20 0
BBX 15 26 2 0
BITMAP
0004
018E
071C
0E38
1C70
0840
0000
0000
C006
C006
C006
C006
C006
C006
C006
C006
C006
C006
C006
C006
E006
600E
701E
383E
1FF6
0FC6
ENDCHAR
STARTCHAR 0172
ENCODING 370
SWIDTH 660 0
DWIDTH 22 0
BBX 16 30 3 -6
BITMAP
C003
C003
C003
C003
C003
C003
C003
C003
C003
C003
C003
C003
C003
C003
C003
C003
C003
C003
E007
6006
700E
3C3C
1FF8
07E0
0180
0300
0300
0300
03E0
01E0
ENDCHAR
STARTCHAR 0173
ENCODING 371
SWIDTH 600 0
DWIDTH 20 0
BBX 16 24 2 -6
BITMAP
C006
C006
C006
C006
C006
C006
C006
C006
C006
C006
C006
C006
E006
600E
701E
383E
1FF6
07C6
000C
0008
0018
0018
000F
000F
ENDCHAR
STARTCHAR 0179
ENCODING 377
SWIDTH 480 0
DWIDTH 16 0
BBX 15 31 0 0
BITMAP
0020
00E0
03E0
0F80
0E00
0000
0000
FFFE
FFFE
000E
001C
001C
0038
0070
0070
00E0
00C0
01C0
0380
0380
0700
0E00
0E00
1C00
1800
3800
7000
7000
E000
FFFE
FFFE
ENDCHAR
STARTCHAR 017A
ENCODING 378
SWIDTH 420 0
DWIDTH 14 0
BBX 13 26 0 0
BITMAP
0040
01C0
07C0
1F00
1C00
0000
0000
0000
FFF0
FFF0
0070
0060
00E0
01C0
0180
0380
0700
0600
0E00
1C00
3800
3000
7000
E000
FFF8
FFF8
ENDCHAR
STARTCHAR 017B
ENCODING 379
SWIDTH 480 0
DWIDTH 16 0
BBX 14 30 1 0
BITMAP
0300
0300
0300
0300
0000
0000
FFFC
FFFC
001C
0038
0038
0070
0060
00E0
00C0
01C0
0380
0300
0700
0600
0E00
1C00
1800
3800
3000
7000
E000
E000
FFFC
FFFC
ENDCHAR
STARTCHAR 017C
ENCODING 380
SWIDTH 420 0
DWIDTH 14 0
BBX 13 25 0 0
BITMAP
0300
0300
0300
0300
0000
0000
0000
7FF8
7FF8
0030
0070
00E0
00C0
01C0
0380
0300
0700
0E00
0C00
1C00
3800
7000
7000
FFF8
FFF8
ENDCHAR
STARTCHAR 017D
ENCODING 381
SWIDTH 480 0
DWIDTH 16 0
BBX 15 30 0 0
BITMAP
3838
1CE0
0FC0
0380
0000
0000
FFFE
FFFE
000E
001C
001C
0038
0070
0070
00E0
01C0
01C0
0380
0380
0700
0E00
0E00
1C00
1800
3800
7000
7000
E000
FFFE
FFFE
ENDCHAR
STARTCHAR 017E
ENCODING 382
SWIDTH 420 0
DWIDTH 14 0
BBX 13 25 0 0
BITMAP
7060
39C0
0F80
0700
0000
0000
0000
FFF0
FFF0
0070
0060
00E0
01C0
0180
0380
0700
0600
0E00
1C00
3800
3000
7000
E000
FFF8
FFF8
ENDCHAR
STARTCHAR 0218
ENCODING 536
SWIDTH 510 0
DWIDTH 17 0
BBX 15 31 0 -7
BITMAP
07E0
1FF8
3C3C
300C
700E
6006
6000
7000
3800
3C00
1FC0
07F0
0078
001C
000E
0006
0006
E006
6006
600E
700C
3C3C
1FF0
07E0
0000
0180
0380
0300
0700
0600
0600
ENDCHAR
STARTCHAR 0219
ENCODING 537
SWIDTH 390 0
DWIDTH 13 0
BBX 11 25 1 -7
BITMAP
1F00
7F80
61C0
C0C0
C0C0
C000
E000
7C00
3F00
07C0
01E0
00E0
C060
C060
E0E0
71C0
7F80
1F00
0000
0E00
0C00
1C00
1800
1800
3000
ENDCHAR
STARTCHAR 021A
ENCODING 538
SWIDTH 420 0
DWIDTH 14 0
BBX 14 31 0 -7
BITMAP
FFFC
FFFC
0300
0300
0300
0300
0300
0300
0300
0300
0300
0300
0300
0300
0300
0300
0300
0300
0300
0300
0300
0300
0300
0300
0000
0300
0300
0600
0600
0C00
0C00
ENDCHAR
STARTCHAR 021B
ENCODING 539
SWIDTH 330 0
DWIDTH 11 0
BBX 10 31 0 -7
BITMAP
0C00
0C00
0C00
0C00
0C00
0C00
FFC0
FFC0
0C00
0C00
0C00
0C00
0C00
0C00
0C00
0C00
0C00
0C00
0C00
0C00
0C00
0C00
0C00
0C00
0000
0C00
0C00
1C00
1800
1800
3000
ENDCHAR
STARTCHAR 02C7
ENCODING 711
SWIDTH 510 0
DWIDTH 17 0
BBX 10 4 3 21
BITMAP
E1C0
7380
3F00
1E00
ENDCHAR
STARTCHAR 02D8
ENCODING 728
SWIDTH 450 0
DWIDTH 15 0
BBX 11 3 2 21
BITMAP
E0E0
7FC0
1F00
ENDCHAR
STARTCHAR 02D9
ENCODING 729
SWIDTH 210 0
DWIDTH 7 0
BBX 2 4 2 21
BITMAP
C0
C0
C0
C0
ENDCHAR
STARTCHAR 02DB
ENCODING 731
SWIDTH 300 0
DWIDTH 10 0
BBX 5 6 2 -5
BITMAP
30
60
C0
C0
78
38
ENDCHAR
STARTCHAR 02DD
ENCODING 733
SWIDTH 540 0
DWIDTH 18 0
BBX 12 6 4 19
BITMAP
0020
0C70
38E0
71C0
E380
4200
ENDCHAR
STARTCHAR 0394
ENCODING 916
SWIDTH 600 0
DWIDTH 20 0
BBX 20 22 0 1
BITMAP
002000
003000
007000
007000
00F800
00B800
01BC00
013C00
031C00
021E00
060E00
040F00
0C0700
080700
080780
100380
1003C0
3001C0
2001E0
6001E0
7FFFE0
FFFFF0
ENDCHAR
STARTCHAR 03BC
ENCODING 956
SWIDTH 600 0
DWIDTH 20 0
BBX 14 24 3 -6
BITMAP
C00C
C00C
C00C
C00C
C00C
C00C
C00C
C00C
C00C
C00C
C00C
C00C
E00C
E01C
F03C
F87C
DFEC
CF8C
C000
C000
C000
C000
C000
C000
ENDCHAR
STARTCHAR 2013
ENCODING 8211
SWIDTH 510 0
DWIDTH 17 0
BBX 14 2 1 9
BITMAP
FFFC
FFFC
ENDCHAR
STARTCHAR 2014
ENCODING 8212
SWIDTH 990 0
DWIDTH 33 0
BBX 30 2 1 9
BITMAP
FFFFFFFC
FFFFFFFC
ENDCHAR
STARTCHAR 2018
ENCODING 8216
SWIDTH 360 0
DWIDTH 12 0
BBX 5 6 3 17
BITMAP
E0
60
60
70
30
38
ENDCHAR
STARTCHAR 2019
ENCODING 8217
SWIDTH 360 0
DWIDTH 12 0
BBX 5 6 3 17
BITMAP
38
30
70
60
60
E0
ENDCHAR
STARTCHAR 201A
ENCODING 8218
SWIDTH 360 0
DWIDTH 12 0
BBX 5 6 3 -2
BITMAP
38
30
70
60
E0
C0
ENDCHAR
STARTCHAR 201C
ENCODING 8220
SWIDTH 510 0
DWIDTH 17 0
BBX 10 6 3 17
BITMAP
E600
6700
7300
3380
3180
39C0
ENDCHAR
STARTCHAR 201D
ENCODING 8221
SWIDTH 480 0
DWIDTH 16 0
BBX 10 6 3 17
BITMAP
19C0
3980
3380
7300
6300
E700
ENDCHAR
STARTCHAR 201E
ENCODING 8222
SWIDTH 510 0
DWIDTH 17 0
BBX 10 6 3 -2
BITMAP
19C0
3980
3380
7300
6700
E600
ENDCHAR
STARTCHAR 2020
ENCODING 8224
SWIDTH 540 0
DWIDTH 18 0
BBX 14 28 2 -4
BITMAP
0300
0300
0300
0300
0300
0300
FFFC
FFFC
0300
0300
0300
0300
0300
0300
0300
0300
0300
0300
0300
0300
0300
0300
0300
0300
0300
0300
0300
0300
ENDCHAR
STARTCHAR 2021
ENCODING 8225
SWIDTH 540 0
DWIDTH 18 0
BBX 14 29 2 -5
BITMAP
0300
0300
0300
0300
0300
0300
FFFC
FFFC
0300
0300
0300
0300
0300
0300
0300
0300
0300
0300
0300
0300
FFFC
FFFC
0300
0300
0300
0300
0300
0300
0300
ENDCHAR
STARTCHAR 2022
ENCODING 8226
SWIDTH 600 0
DWIDTH 20 0
BBX 10 10 5 7
BITMAP
1E00
7F80
7F80
FFC0
FFC0
FFC0
FFC0
7F80
7F80
1E00
ENDCHAR
STARTCHAR 2026
ENCODING 8230
SWIDTH 990 0
DWIDTH 33 0
BBX 24 4 4 1
BITMAP
C01803
C01803
C01803
C01803
ENDCHAR
STARTCHAR 2030
ENCODING 8240
SWIDTH 1170 0
DWIDTH 39 0
BBX 37 24 1 0
BITMAP
1F80700000
3FC0600000
70E0C00000
E070C00000
C031800000
C033800000
C033000000
E076000000
70E6000000
3FCC000000
1F8C000000
0018000000
0038F00780
0033FC1FE0
00670E3870
006E067030
00CC036018
00CC036018
018C036018
038C036018
030E067030
06070E3870
0603FC1FE0
0C01F00F80
ENDCHAR
STARTCHAR 2039
ENCODING 8249
SWIDTH 240 0
DWIDTH 8 0
BBX 6 13 1 3
BITMAP
08
1C
38
30
70
60
E0
60
70
38
38
1C
08
ENDCHAR
STARTCHAR 203A
ENCODING 8250
SWIDTH 240 0
DWIDTH 8 0
BBX 6 13 1 3
BITMAP
40
E0
70
70
38
18
1C
18
38
70
70
E0
40
ENDCHAR
STARTCHAR 20AC
ENCODING 8364
SWIDTH 540 0
DWIDTH 18 0
BBX 15 24 1 0
BITMAP
01F8
07FE
0FDE
0C00
1C00
1800
3800
3000
FFFC
FFF8
3000
3000
3000
FFF0
FFF0
3000
3000
1800
1800
1C00
0E02
0F8E
07FE
01F8
ENDCHAR
STARTCHAR 2122
ENCODING 8482
SWIDTH 990 0
DWIDTH 33 0
BBX 27 14 0 10
BITMAP
FF9C00E0
FF9C01E0
0C1E01E0
0C1A0360
0C1B0360
0C1B0260
0C198660
0C198460
0C18CC60
0C18CC60
0C187860
0C187860
0C187060
0C183060
ENDCHAR
STARTCHAR 2202
ENCODING 8706
SWIDTH 480 0
DWIDTH 16 0
BBX 13 24 1 -2
BITMAP
3F00
7180
0040
0060
0030
0030
0018
0018
0018
0018
0018
1F98
3878
7038
6038
E038
C038
C038
C070
C070
C0E0
60E0
33C0
1F00
ENDCHAR
STARTCHAR 2206
ENCODING 8710
SWIDTH 600 0
DWIDTH 20 0
BBX 20 22 0 1
BITMAP
002000
003000
007000
007000
00F800
00B800
01BC00
013C00
031C00
021E00
060E00
040F00
0C0700
080700
080780
100380
1003C0
3001C0
2001E0
6001E0
7FFFE0
FFFFF0
ENDCHAR
STARTCHAR 2211
ENCODING 8721
SWIDTH 600 0
DWIDTH 20 0
BBX 18 24 1 0
BITMAP
FFFF00
7FFF00
380100
1C0100
1E0000
0E0000
070000
038000
03C000
01C000
00E000
00F000
007000
006000
00C000
018000
038000
030000
060000
0C0040
180040
3000C0
7FFF80
FFFF80
ENDCHAR
STARTCHAR 2219
ENCODING 8729
SWIDTH 270 0
DWIDTH 9 0
BBX 2 4 3 6
BITMAP
C0
C0
C0
C0
ENDCHAR
STARTCHAR 221A
ENCODING 8730
SWIDTH 450 0
DWIDTH 15 0
BBX 14 26 0 -3
BITMAP
000C
000C
000C
000C
0008
0018
0018
0018
0018
0018
0010
3830
D830
0C30
0C30
0630
0620
0360
0360
0360
01E0
01E0
00E0
00C0
0040
0040
ENDCHAR
STARTCHAR 2260
ENCODING 8800
SWIDTH 540 0
DWIDTH 18 0
BBX 17 19 0 -1
BITMAP
000800
001C00
001C00
003800
003000
FFFF80
FFFF80
00E000
01C000
01C000
038000
038000
FFFF80
FFFF80
0E0000
1C0000
1C0000
380000
080000
ENDCHAR
STARTCHAR 2264
ENCODING 8804
SWIDTH 540 0
DWIDTH 18 0
BBX 16 21 1 1
BITMAP
0007
001F
007E
01F0
07C0
1F00
FC00
F000
F000
7C00
1F80
07E0
00F8
003E
000F
0003
0000
0000
FFFF
FFFF
FFFF
ENDCHAR
STARTCHAR 2265
ENCODING 8805
SWIDTH 540 0
DWIDTH 18 0
BBX 16 21 1 1
BITMAP
E000
F800
7E00
0F80
03E0
00F8
003F
000F
000F
003E
01F8
07E0
1F00
7C00
F000
C000
0000
0000
FFFF
FFFF
FFFF
ENDCHAR
STARTCHAR 25CA
ENCODING 9674
SWIDTH 480 0
DWIDTH 16 0
BBX 14 24 0 0
BITMAP
0300
0780
0780
0FC0
0CC0
1CE0
1860
3870
3030
7038
6018
E01C
E01C
6018
7038
3030
3870
1860
1CE0
0CC0
0FC0
0780
0780
0300
ENDCHAR
ENDFONT
